<svg width="30" height="31" viewBox="0 0 30 31" fill="none" xmlns="http://www.w3.org/2000/svg">
<path d="M15 3.3125C12.5895 3.3125 10.2332 4.02728 8.22899 5.36646C6.22477 6.70564 4.66267 8.60907 3.74022 10.836C2.81778 13.063 2.57643 15.5135 3.04668 17.8777C3.51694 20.2418 4.67769 22.4134 6.38214 24.1179C8.08659 25.8223 10.2582 26.9831 12.6223 27.4533C14.9865 27.9236 17.437 27.6822 19.664 26.7598C21.8909 25.8373 23.7944 24.2752 25.1335 22.271C26.4727 20.2668 27.1875 17.9105 27.1875 15.5C27.1841 12.2687 25.899 9.17076 23.6141 6.8859C21.3292 4.60104 18.2313 3.31591 15 3.3125ZM19.6875 16.4375H10.3125C10.0639 16.4375 9.82541 16.3387 9.64959 16.1629C9.47378 15.9871 9.37501 15.7486 9.37501 15.5C9.37501 15.2514 9.47378 15.0129 9.64959 14.8371C9.82541 14.6613 10.0639 14.5625 10.3125 14.5625H19.6875C19.9361 14.5625 20.1746 14.6613 20.3504 14.8371C20.5262 15.0129 20.625 15.2514 20.625 15.5C20.625 15.7486 20.5262 15.9871 20.3504 16.1629C20.1746 16.3387 19.9361 16.4375 19.6875 16.4375Z" fill="#301534"/>
</svg>
