<svg width="30" height="31" viewBox="0 0 30 31" fill="none" xmlns="http://www.w3.org/2000/svg">
<path d="M15 3.3125C12.5895 3.3125 10.2332 4.02728 8.22899 5.36646C6.22477 6.70564 4.66267 8.60907 3.74022 10.836C2.81778 13.063 2.57643 15.5135 3.04668 17.8777C3.51694 20.2418 4.67769 22.4134 6.38214 24.1179C8.08659 25.8223 10.2582 26.9831 12.6223 27.4533C14.9865 27.9236 17.437 27.6822 19.664 26.7598C21.8909 25.8373 23.7944 24.2752 25.1335 22.271C26.4727 20.2668 27.1875 17.9105 27.1875 15.5C27.1835 12.2689 25.8981 9.17131 23.6134 6.88659C21.3287 4.60186 18.2311 3.31653 15 3.3125ZM19.6875 16.4375H15.9375V20.1875C15.9375 20.4361 15.8387 20.6746 15.6629 20.8504C15.4871 21.0262 15.2486 21.125 15 21.125C14.7514 21.125 14.5129 21.0262 14.3371 20.8504C14.1613 20.6746 14.0625 20.4361 14.0625 20.1875V16.4375H10.3125C10.0639 16.4375 9.82541 16.3387 9.64959 16.1629C9.47378 15.9871 9.375 15.7486 9.375 15.5C9.375 15.2514 9.47378 15.0129 9.64959 14.8371C9.82541 14.6613 10.0639 14.5625 10.3125 14.5625H14.0625V10.8125C14.0625 10.5639 14.1613 10.3254 14.3371 10.1496C14.5129 9.97377 14.7514 9.875 15 9.875C15.2486 9.875 15.4871 9.97377 15.6629 10.1496C15.8387 10.3254 15.9375 10.5639 15.9375 10.8125V14.5625H19.6875C19.9361 14.5625 20.1746 14.6613 20.3504 14.8371C20.5262 15.0129 20.625 15.2514 20.625 15.5C20.625 15.7486 20.5262 15.9871 20.3504 16.1629C20.1746 16.3387 19.9361 16.4375 19.6875 16.4375Z" fill="#AD28EB"/>
</svg>
